HIERARCHY
ROOT Hips
{
	OFFSET 3.635676 -0.029931 16.716202
	CHANNELS 6 Xposition Yposition Zposition Xrotation Yrotation Zrotation
	JOINT Spine
	{
		OFFSET -2.328047 -0.233396 1.326775
		CHANNELS 6 Xposition Yposition Zposition Xrotation Yrotation Zrotation
		JOINT Spine1
		{
			OFFSET -1.269460 -0.047563 1.204964
			CHANNELS 6 Xposition Yposition Zposition Xrotation Yrotation Zrotation
			JOINT Spine2
			{
				OFFSET -1.368899 -0.023871 1.091455
				CHANNELS 6 Xposition Yposition Zposition Xrotation Yrotation Zrotation
				JOINT Spine3
				{
					OFFSET -1.457911 -0.000000 0.969645
					CHANNELS 6 Xposition Yposition Zposition Xrotation Yrotation Zrotation
					JOINT Neck
					{
						OFFSET -4.186156 0.102714 2.005333
						CHANNELS 6 Xposition Yposition Zposition Xrotation Yrotation Zrotation
						JOINT Head
						{
							OFFSET -2.066332 0.065398 2.209999
							CHANNELS 6 Xposition Yposition Zposition Xrotation Yrotation Zrotation
							End Site
							{
								OFFSET -3.723924 0.000001 1.864305
							}
						}
					}
					JOINT RightShoulder
					{
						OFFSET -3.185915 0.747433 1.047771
						CHANNELS 6 Xposition Yposition Zposition Xrotation Yrotation Zrotation
						JOINT RightArm
						{
							OFFSET -0.365717 2.936968 -0.666592
							CHANNELS 6 Xposition Yposition Zposition Xrotation Yrotation Zrotation
							JOINT RightForeArm
							{
								OFFSET 0.315914 0.591119 -2.448708
								CHANNELS 6 Xposition Yposition Zposition Xrotation Yrotation Zrotation
								JOINT RightHand
								{
									OFFSET -2.051042 0.521136 -0.992044
									CHANNELS 6 Xposition Yposition Zposition Xrotation Yrotation Zrotation
									JOINT RightHandEnd
									{
										OFFSET -0.696754 0.149593 -0.588911
										CHANNELS 6 Xposition Yposition Zposition Xrotation Yrotation Zrotation
										End Site
										{
											OFFSET -0.696753 0.149593 -0.588911
										}
									}
									JOINT RightHandThumb1
									{
										OFFSET -0.135592 -0.796009 -0.488258
										CHANNELS 6 Xposition Yposition Zposition Yrotation Xrotation Zrotation
										End Site
										{
											OFFSET -0.682886 -0.196600 -0.597397
										}
									}
								}
							}
						}
					}
					JOINT LeftShoulder
					{
						OFFSET -3.289651 -0.435237 0.891800
						CHANNELS 6 Xposition Yposition Zposition Xrotation Yrotation Zrotation
						JOINT LeftArm
						{
							OFFSET -0.257606 -2.936968 -0.387327
							CHANNELS 6 Xposition Yposition Zposition Xrotation Yrotation Zrotation
							JOINT LeftForeArm
							{
								OFFSET 0.284856 -0.077413 -2.746111
								CHANNELS 6 Xposition Yposition Zposition Xrotation Yrotation Zrotation
								JOINT LeftHand
								{
									OFFSET -2.027425 -0.068249 -0.880924
									CHANNELS 6 Xposition Yposition Zposition Xrotation Yrotation Zrotation
									JOINT LeftHandEnd
									{
										OFFSET -0.688319 -0.019591 -0.606153
										CHANNELS 6 Xposition Yposition Zposition Xrotation Yrotation Zrotation
										End Site
										{
											OFFSET -0.713974 -0.019590 -0.446257
										}
									}
									JOINT LeftHandThumb1
									{
										OFFSET -0.083853 0.853919 -0.453426
										CHANNELS 6 Xposition Yposition Zposition Yrotation Xrotation Zrotation
										End Site
										{
											OFFSET -0.656959 0.324347 -0.598707
										}
									}
								}
							}
						}
					}
				}
			}
		}
	}
	JOINT RightUpLeg
	{
		OFFSET -0.688493 2.309778 -0.825785
		CHANNELS 6 Xposition Yposition Zposition Xrotation Yrotation Zrotation
		JOINT RightLeg
		{
			OFFSET -2.912278 0.000003 -5.177770
			CHANNELS 6 Xposition Yposition Zposition Xrotation Yrotation Zrotation
			JOINT RightFoot
			{
				OFFSET 1.760911 0.000001 -4.225841
				CHANNELS 6 Xposition Yposition Zposition Xrotation Yrotation Zrotation
				JOINT RightToeBase
				{
					OFFSET -2.411492 0.639390 -3.113107
					CHANNELS 6 Xposition Yposition Zposition Xrotation Yrotation Zrotation
					End Site
					{
						OFFSET -1.868579 0.295954 0.000000
					}
				}
			}
		}
	}
	JOINT LeftUpLeg
	{
		OFFSET -1.420158 -2.309778 -0.825787
		CHANNELS 6 Xposition Yposition Zposition Xrotation Yrotation Zrotation
		JOINT LeftLeg
		{
			OFFSET -2.912278 0.000003 -5.177770
			CHANNELS 6 Xposition Yposition Zposition Xrotation Yrotation Zrotation
			JOINT LeftFoot
			{
				OFFSET 1.760911 0.000002 -4.225841
				CHANNELS 6 Xposition Yposition Zposition Xrotation Yrotation Zrotation
				JOINT LeftToeBase
				{
					OFFSET -2.411492 0.639390 -3.113107
					CHANNELS 6 Xposition Yposition Zposition Xrotation Yrotation Zrotation
					End Site
					{
						OFFSET -1.868578 0.295954 0.000000
					}
				}
			}
		}
	}
}
MOTION
Frames: 4
Frame Time: 0.041667
-0.496804 -0.093039 16.760508 -0.000001 0.000000 0.000000 -2.264804 -0.227065 1.248791 -0.081745 -28.855927 -0.363713 -1.269459 -0.047563 1.204963 0.009276 0.859313 0.085689 -1.368901 -0.023871 1.091452 0.000000 0.000002 -0.000000 -1.457906 0.000001 0.969650 0.000001 0.000005 -0.000000 -4.186156 0.102714 2.005333 0.033073 -2.216533 0.292142 -2.066335 0.065398 2.210000 -0.000001 1.121136 0.000003 -3.185915 0.747432 1.047766 -0.000001 0.000001 -0.000000 -0.365719 2.936971 -0.666594 -0.263168 -42.142035 -1.475394 0.315911 0.591120 -2.448706 -0.000003 0.000001 0.000000 -2.051042 0.521136 -0.992046 0.000002 -0.000006 0.000005 -0.696754 0.149593 -0.588909 0.000001 0.000005 0.000002 -0.135591 -0.796009 -0.488264 -0.000002 -0.000000 0.000000 -3.289652 -0.435236 0.891798 -0.000001 -0.000001 -0.000000 -0.257604 -2.936969 -0.387324 0.029876 -3.924477 -0.250812 0.284857 -0.077411 -2.746109 -0.000000 0.000003 -0.000000 -2.027427 -0.068248 -0.880928 0.000002 -0.000005 -0.000002 -0.688317 -0.019590 -0.606151 -0.000001 0.000010 -0.000004 -0.083851 0.853918 -0.453428 0.000006 0.000004 -0.000005 -0.688491 2.309779 -0.825783 0.000021 1.675715 -0.000012 -2.912278 0.000003 -5.177769 -0.000037 -53.970092 -0.000027 1.760910 0.000000 -4.225841 -0.231974 38.824861 -0.148479 -2.411495 0.639390 -3.113107 4.433638 -85.770585 5.098039 -1.420158 -2.309777 -0.825784 -0.000014 -22.925250 0.000001 -2.912278 0.000003 -5.177773 0.000008 -13.760667 -0.000000 1.760910 0.000002 -4.225842 -0.301946 11.901038 0.509209 -2.411493 0.639390 -3.113107 360.330946 1.024308 359.997278 
-0.509244 -0.029931 17.000660 -0.000001 0.000000 0.000000 -2.328044 -0.233397 1.326774 -0.000014 -28.355785 -0.000006 -1.269462 -0.047563 1.204960 0.000000 0.000001 -0.000001 -1.368904 -0.023871 1.091448 0.000000 -0.000002 -0.000000 -1.457909 0.000001 0.969649 0.000000 0.000005 -0.000000 -4.186159 0.102714 2.005336 -0.000002 -0.000001 -0.000000 -2.066336 0.065398 2.210003 -0.000000 0.000000 0.000000 -3.185915 0.747432 1.047768 -0.000001 0.000001 -0.000001 -0.365719 2.936971 -0.666589 -0.000050 -42.281678 -0.000047 0.315910 0.591120 -2.448704 0.000001 -0.000001 0.000002 -2.051040 0.521136 -0.992046 0.000001 -0.000001 0.000006 -0.696755 0.149593 -0.588911 -0.000002 -0.000005 -0.000004 -0.135591 -0.796009 -0.488267 0.000003 -0.000001 -0.000001 -3.289653 -0.435237 0.891793 0.000001 -0.000003 -0.000000 -0.257607 -2.936970 -0.387325 -0.000002 -2.946855 -0.000001 0.284855 -0.077413 -2.746109 -0.000000 0.000005 -0.000000 -2.027426 -0.068250 -0.880924 -0.000001 0.000004 -0.000000 -0.688317 -0.019590 -0.606154 0.000000 -0.000005 -0.000003 -0.083848 0.853918 -0.453426 -0.000004 0.000005 -0.000003 -0.688491 2.309778 -0.825783 0.000003 13.968229 0.000002 -2.912280 0.000003 -5.177770 -0.000041 -61.496694 -0.000033 1.760911 0.000001 -4.225839 0.000012 42.103704 0.000007 -2.411496 0.639389 -3.113107 0.000745 -92.565401 0.000705 -1.420159 -2.309778 -0.825784 -0.000015 -36.341466 -0.000018 -2.912278 0.000004 -5.177771 0.000000 -0.000003 -0.000000 1.760911 0.000002 -4.225841 0.000003 12.211437 0.000005 -2.411493 0.639390 -3.113108 360.000010 -0.000002 360.000010 
-0.509244 -0.029931 17.000660 -0.000001 0.000000 0.000000 -2.328044 -0.233396 1.326775 0.004030 -28.878586 0.108799 -1.269462 -0.047563 1.204958 -0.007866 0.862372 -0.045903 -1.368899 -0.023871 1.091457 0.000000 0.000000 -0.000000 -1.457911 0.000001 0.969645 0.000000 0.000002 0.000000 -4.186156 0.102714 2.005335 -0.007517 -0.242096 -0.124839 -2.066333 0.065398 2.210001 0.000000 1.121138 0.000001 -3.185911 0.747432 1.047772 0.000001 0.000008 -0.000002 -0.365716 2.936971 -0.666594 0.245855 -43.193331 0.847813 0.315913 0.591120 -2.448704 0.000001 -0.000003 -0.000000 -2.051038 0.521133 -0.992051 -0.000000 -0.000002 0.000003 -0.696754 0.149591 -0.588913 -0.000001 -0.000006 0.000001 -0.135592 -0.796010 -0.488264 -0.000001 -0.000001 -0.000004 -3.289649 -0.435237 0.891800 0.000001 0.000007 0.000001 -0.257607 -2.936968 -0.387329 -0.000510 -3.660830 0.001399 0.284855 -0.077413 -2.746113 -0.000000 -0.000000 -0.000000 -2.027424 -0.068249 -0.880927 -0.000000 0.000004 -0.000006 -0.688322 -0.019590 -0.606152 0.000003 0.000000 0.000001 -0.083851 0.853918 -0.453429 0.000003 0.000000 -0.000001 -0.688491 2.309778 -0.825786 -0.000004 19.397546 0.000008 -2.912279 0.000004 -5.177767 -0.000039 -58.789624 -0.000031 1.760911 0.000002 -4.225841 -0.184126 39.775286 0.000574 -2.411495 0.639389 -3.113108 0.000669 -92.565401 0.000646 -1.420160 -2.309778 -0.825784 -0.000020 -45.571832 -0.000032 -2.912279 0.000004 -5.177770 -0.000003 9.934785 0.000002 1.760911 0.000001 -4.225840 -0.034095 11.145220 -0.016269 -2.411491 0.639391 -3.113107 360.000010 0.000002 360.000010 
-0.509244 -0.029931 17.000660 -0.000001 0.000000 0.000000 -2.328044 -0.233396 1.326772 0.006541 -30.173699 0.140060 -1.269464 -0.047563 1.204964 -0.010693 3.015920 -0.058438 -1.368900 -0.023871 1.091455 0.000000 -0.000002 -0.000000 -1.457908 0.000001 0.969650 0.000000 0.000005 -0.000000 -4.186159 0.102714 2.005338 -0.017056 -0.993618 -0.171528 -2.066333 0.065398 2.210009 0.000002 3.923979 0.000002 -3.185913 0.747431 1.047770 0.000001 -0.000004 -0.000001 -0.365719 2.936970 -0.666597 0.354848 -45.201465 1.108878 0.315911 0.591120 -2.448704 -0.000001 -0.000005 0.000001 -2.051041 0.521133 -0.992050 -0.000001 -0.000005 0.000005 -0.696756 0.149592 -0.588910 -0.000003 -0.000011 -0.000001 -0.135593 -0.796010 -0.488262 -0.000000 -0.000003 0.000000 -3.289649 -0.435236 0.891800 -0.000001 -0.000001 -0.000000 -0.257606 -2.936969 -0.387329 -0.001852 -5.610692 0.004567 0.284858 -0.077412 -2.746111 -0.000000 -0.000002 -0.000000 -2.027428 -0.068249 -0.880925 -0.000003 0.000008 -0.000002 -0.688319 -0.019590 -0.606155 -0.000001 0.000007 0.000002 -0.083851 0.853918 -0.453427 0.000000 -0.000000 -0.000001 -0.688490 2.309778 -0.825782 -0.000006 22.757934 0.000010 -2.912278 0.000003 -5.177769 -0.000029 -52.021962 -0.000023 1.760910 0.000001 -4.225839 -0.502264 33.967610 -0.022495 -2.411496 0.639391 -3.113108 0.000726 -92.565408 0.000689 -1.420160 -2.309778 -0.825788 -0.000027 -51.213424 -0.000040 -2.912277 0.000003 -5.177772 -0.000004 16.434868 0.000004 1.760911 0.000002 -4.225840 -0.096535 8.483239 -0.046987 -2.411492 0.639391 -3.113107 360.000010 -0.000002 360.000010 
